<svg width="314" height="68" viewBox="0 0 314 68" fill="none" xmlns="http://www.w3.org/2000/svg">
<path d="M49.7422 29.2305C49.7422 33.0508 49.2852 36.5547 48.3711 39.7422C47.4805 42.9062 46.0977 45.6484 44.2227 47.9688C42.3477 50.2891 39.9688 52.1055 37.0859 53.418L49.4609 67.2344H35.5039L26.082 55.7031C25.918 55.7031 25.7773 55.7031 25.6602 55.7031C25.543 55.7031 25.4141 55.7031 25.2734 55.7031C21.0781 55.7031 17.4453 55.082 14.375 53.8398C11.3047 52.5742 8.76172 50.7695 6.74609 48.4258C4.75391 46.082 3.26562 43.2812 2.28125 40.0234C1.29688 36.7656 0.804688 33.1445 0.804688 29.1602C0.804688 23.8398 1.67188 19.2109 3.40625 15.2734C5.16406 11.3125 7.85938 8.24219 11.4922 6.0625C15.125 3.88281 19.7422 2.79297 25.3438 2.79297C30.9219 2.79297 35.5039 3.88281 39.0898 6.0625C42.6992 8.24219 45.3711 11.3125 47.1055 15.2734C48.8633 19.2344 49.7422 23.8867 49.7422 29.2305ZM12.2305 29.2305C12.2305 32.8164 12.6758 35.9102 13.5664 38.5117C14.4805 41.0898 15.8984 43.082 17.8203 44.4883C19.7422 45.8711 22.2266 46.5625 25.2734 46.5625C28.3672 46.5625 30.875 45.8711 32.7969 44.4883C34.7188 43.082 36.1133 41.0898 36.9805 38.5117C37.8711 35.9102 38.3164 32.8164 38.3164 29.2305C38.3164 23.8398 37.3086 19.5977 35.293 16.5039C33.2773 13.4102 29.9609 11.8633 25.3438 11.8633C22.2734 11.8633 19.7656 12.5664 17.8203 13.9727C15.8984 15.3555 14.4805 17.3477 13.5664 19.9492C12.6758 22.5273 12.2305 25.6211 12.2305 29.2305ZM95.6211 15.6953V55H87.3945L85.9531 49.9727H85.3906C84.5469 51.3086 83.4922 52.3984 82.2266 53.2422C80.9609 54.0859 79.5664 54.707 78.043 55.1055C76.5195 55.5039 74.9375 55.7031 73.2969 55.7031C70.4844 55.7031 68.0352 55.2109 65.9492 54.2266C63.8633 53.2188 62.2344 51.6602 61.0625 49.5508C59.9141 47.4414 59.3398 44.6992 59.3398 41.3242V15.6953H70.0625V38.6523C70.0625 41.4648 70.5664 43.5859 71.5742 45.0156C72.582 46.4453 74.1875 47.1602 76.3906 47.1602C78.5703 47.1602 80.2812 46.668 81.5234 45.6836C82.7656 44.6758 83.6328 43.2109 84.125 41.2891C84.6406 39.3438 84.8984 36.9766 84.8984 34.1875V15.6953H95.6211ZM117.594 15.6953V55H106.871V15.6953H117.594ZM112.25 0.296875C113.844 0.296875 115.215 0.671875 116.363 1.42188C117.512 2.14844 118.086 3.51953 118.086 5.53516C118.086 7.52734 117.512 8.91016 116.363 9.68359C115.215 10.4336 113.844 10.8086 112.25 10.8086C110.633 10.8086 109.25 10.4336 108.102 9.68359C106.977 8.91016 106.414 7.52734 106.414 5.53516C106.414 3.51953 106.977 2.14844 108.102 1.42188C109.25 0.671875 110.633 0.296875 112.25 0.296875ZM156.23 55H125.188V48.6719L143.398 23.8867H126.277V15.6953H155.598V22.6562L137.879 46.8086H156.23V55ZM160.555 40.0938V31.3047H179.434V40.0938H160.555ZM197.961 0.296875V13.0234C197.961 14.5 197.914 15.9648 197.82 17.418C197.75 18.8711 197.656 19.9961 197.539 20.793H197.961C198.992 19.1758 200.398 17.8047 202.18 16.6797C203.961 15.5312 206.27 14.957 209.105 14.957C213.512 14.957 217.086 16.6797 219.828 20.125C222.57 23.5703 223.941 28.6211 223.941 35.2773C223.941 39.7539 223.309 43.5156 222.043 46.5625C220.777 49.5859 219.008 51.8711 216.734 53.418C214.461 54.9414 211.824 55.7031 208.824 55.7031C205.941 55.7031 203.668 55.1875 202.004 54.1562C200.34 53.125 198.992 51.9648 197.961 50.6758H197.223L195.43 55H187.238V0.296875H197.961ZM205.66 23.5352C203.785 23.5352 202.297 23.9219 201.195 24.6953C200.094 25.4688 199.285 26.6289 198.77 28.1758C198.277 29.7227 198.008 31.6797 197.961 34.0469V35.207C197.961 39.0273 198.523 41.957 199.648 43.9961C200.773 46.0117 202.824 47.0195 205.801 47.0195C208.004 47.0195 209.75 46 211.039 43.9609C212.352 41.9219 213.008 38.9805 213.008 35.1367C213.008 31.293 212.352 28.3984 211.039 26.4531C209.727 24.5078 207.934 23.5352 205.66 23.5352ZM268.52 35.2773C268.52 38.5586 268.074 41.4648 267.184 43.9961C266.316 46.5273 265.039 48.6719 263.352 50.4297C261.688 52.1641 259.672 53.4766 257.305 54.3672C254.961 55.2578 252.312 55.7031 249.359 55.7031C246.594 55.7031 244.051 55.2578 241.73 54.3672C239.434 53.4766 237.43 52.1641 235.719 50.4297C234.031 48.6719 232.719 46.5273 231.781 43.9961C230.867 41.4648 230.41 38.5586 230.41 35.2773C230.41 30.918 231.184 27.2266 232.73 24.2031C234.277 21.1797 236.48 18.8828 239.34 17.3125C242.199 15.7422 245.609 14.957 249.57 14.957C253.25 14.957 256.508 15.7422 259.344 17.3125C262.203 18.8828 264.441 21.1797 266.059 24.2031C267.699 27.2266 268.52 30.918 268.52 35.2773ZM241.344 35.2773C241.344 37.8555 241.625 40.0234 242.188 41.7812C242.75 43.5391 243.629 44.8633 244.824 45.7539C246.02 46.6445 247.578 47.0898 249.5 47.0898C251.398 47.0898 252.934 46.6445 254.105 45.7539C255.301 44.8633 256.168 43.5391 256.707 41.7812C257.27 40.0234 257.551 37.8555 257.551 35.2773C257.551 32.6758 257.27 30.5195 256.707 28.8086C256.168 27.0742 255.301 25.7734 254.105 24.9062C252.91 24.0391 251.352 23.6055 249.43 23.6055C246.594 23.6055 244.531 24.5781 243.242 26.5234C241.977 28.4688 241.344 31.3867 241.344 35.2773ZM285.43 34.9258L272.773 15.6953H284.938L292.566 28.2109L300.266 15.6953H312.43L299.633 34.9258L313.027 55H300.828L292.566 41.5352L284.27 55H272.105L285.43 34.9258Z" fill="url(#paint0_linear_12391_53)"/>
<defs>
<linearGradient id="paint0_linear_12391_53" x1="-14" y1="186.389" x2="343.205" y2="151.254" gradientUnits="userSpaceOnUse">
<stop stop-color="#8F00FF"/>
<stop offset="1" stop-color="#00A3FF"/>
</linearGradient>
</defs>
</svg>
